<svg width="20" height="16" viewBox="0 0 20 16" fill="none" xmlns="http://www.w3.org/2000/svg">
<path d="M10 0C4.48603 0 0 3.54749 0 7.90804C0 12.2686 4.48603 15.8162 10 15.8162C15.514 15.8162 20 12.2686 20 7.90804C20 3.54749 15.5141 0 10 0ZM15.7422 6.5723L9.45969 11.5405C9.19255 11.7518 8.83746 11.868 8.45972 11.868C8.08198 11.868 7.72688 11.7518 7.45975 11.5405L4.25782 9.00843C3.99069 8.79718 3.84356 8.51637 3.84356 8.21765C3.84356 7.91885 3.99069 7.63804 4.25782 7.42679C4.52485 7.21554 4.87995 7.09919 5.25779 7.09919C5.63553 7.09919 5.99073 7.21554 6.25776 7.42687L8.45961 9.16802L13.742 4.99066C14.0092 4.77942 14.3643 4.66315 14.742 4.66315C15.1197 4.66315 15.4748 4.77942 15.742 4.99066C16.2936 5.42686 16.2936 6.13627 15.7422 6.5723Z" fill="#646F75"/>
</svg>
