<svg width="146" height="44" viewBox="0 0 146 44" fill="none" xmlns="http://www.w3.org/2000/svg">
<circle cx="22.0001" cy="21.9998" r="17" transform="rotate(110.53 22.0001 21.9998)" fill="#14931F"/>
<circle cx="24" cy="21" r="13" fill="white"/>
<circle cx="26" cy="21" r="6" fill="#14931F"/>
<path d="M51.7461 14.3203V27.5977H59.082V30H48.875V14.3203H51.7461ZM61.5078 18.6445H64.2852V30H61.5078V18.6445ZM61.4375 13.0312H64.3555V16.043H61.4375V13.0312ZM74.7852 30.293C74.7852 30.1367 74.7852 29.9453 74.7852 29.7188C74.793 29.4844 74.8047 29.2891 74.8203 29.1328H74.7969C74.625 29.2734 74.4258 29.4141 74.1992 29.5547C73.9805 29.6875 73.7383 29.8125 73.4727 29.9297C73.207 30.0391 72.9141 30.125 72.5938 30.1875C72.2734 30.2578 71.9453 30.293 71.6094 30.293C71.0078 30.293 70.418 30.1875 69.8398 29.9766C69.2695 29.7578 68.7617 29.418 68.3164 28.957C67.8711 28.4883 67.5117 27.8906 67.2383 27.1641C66.9648 26.4375 66.8281 25.5625 66.8281 24.5391C66.8281 23.5156 66.9648 22.6211 67.2383 21.8555C67.5195 21.082 67.8906 20.4375 68.3516 19.9219C68.8125 19.4062 69.3398 19.0195 69.9336 18.7617C70.5352 18.4961 71.1523 18.3633 71.7852 18.3633C72.4805 18.3633 73.0977 18.5117 73.6367 18.8086C74.1758 19.0977 74.6172 19.4688 74.9609 19.9219H75.0078L75.125 18.6445H77.5625V30.2109C77.5625 30.875 77.5078 31.4453 77.3984 31.9219C77.2891 32.3984 77.1289 32.8203 76.918 33.1875C76.668 33.6172 76.3477 33.9922 75.957 34.3125C75.5742 34.6328 75.1328 34.8984 74.6328 35.1094C74.1406 35.3203 73.5977 35.4766 73.0039 35.5781C72.4102 35.6875 71.7812 35.7422 71.1172 35.7422C70.7422 35.7422 70.375 35.7266 70.0156 35.6953C69.6562 35.6719 69.3164 35.6328 68.9961 35.5781C68.6836 35.5312 68.3945 35.4727 68.1289 35.4023C67.8711 35.3398 67.6523 35.2734 67.4727 35.2031V32.9414C67.9883 33.1133 68.5273 33.2422 69.0898 33.3281C69.6602 33.4219 70.2578 33.4688 70.8828 33.4688C72.125 33.4688 73.0859 33.2266 73.7656 32.7422C74.4453 32.2656 74.7852 31.5391 74.7852 30.5625V30.293ZM72.3008 28.0781C72.582 28.0781 72.8477 28.043 73.0977 27.9727C73.3477 27.9023 73.5781 27.8125 73.7891 27.7031C74 27.5938 74.1875 27.4727 74.3516 27.3398C74.5234 27.207 74.668 27.0742 74.7852 26.9414V21.8672C74.4883 21.5156 74.1211 21.2227 73.6836 20.9883C73.2461 20.7539 72.7812 20.6328 72.2891 20.625C72.1172 20.625 71.9336 20.6484 71.7383 20.6953C71.5508 20.7344 71.3594 20.8086 71.1641 20.918C70.9688 21.0273 70.7812 21.1758 70.6016 21.3633C70.4297 21.543 70.2773 21.7734 70.1445 22.0547C70.0117 22.3359 69.9023 22.6719 69.8164 23.0625C69.7383 23.4531 69.6992 23.9062 69.6992 24.4219C69.6992 24.9922 69.7539 25.5039 69.8633 25.957C69.9727 26.4023 70.1367 26.7852 70.3555 27.1055C70.5742 27.418 70.8438 27.6602 71.1641 27.832C71.4922 27.9961 71.8711 28.0781 72.3008 28.0781ZM83.5039 17.6602C83.5039 18.2461 83.4922 18.7305 83.4688 19.1133C83.4531 19.4883 83.4219 19.8281 83.375 20.1328H83.4219C83.5859 19.9141 83.7852 19.6953 84.0195 19.4766C84.2617 19.2578 84.5234 19.0703 84.8047 18.9141C85.0938 18.75 85.418 18.6172 85.7773 18.5156C86.1445 18.4141 86.5469 18.3633 86.9844 18.3633C87.3594 18.3633 87.7227 18.4023 88.0742 18.4805C88.4336 18.5508 88.7656 18.6641 89.0703 18.8203C89.3828 18.9766 89.6641 19.1797 89.9141 19.4297C90.1719 19.6797 90.3867 19.9766 90.5586 20.3203C90.707 20.6172 90.8164 20.9531 90.8867 21.3281C90.957 21.7031 90.9922 22.1602 90.9922 22.6992V30H88.2148V23.0742C88.2148 22.7227 88.1992 22.4375 88.168 22.2188C88.1367 21.9922 88.082 21.7969 88.0039 21.6328C87.8398 21.2891 87.6055 21.0469 87.3008 20.9062C86.9961 20.7656 86.6484 20.6953 86.2578 20.6953C85.7188 20.7031 85.2188 20.832 84.7578 21.082C84.3047 21.332 83.8867 21.6992 83.5039 22.1836V30H80.7266V13.0312H83.5039V17.6602ZM100.977 29.9883C100.664 30.082 100.289 30.1562 99.8516 30.2109C99.4219 30.2656 99.0195 30.293 98.6445 30.293C97.6914 30.293 96.9102 30.1406 96.3008 29.8359C95.6992 29.5234 95.2734 29.0781 95.0234 28.5C94.8438 28.0859 94.7539 27.5234 94.7539 26.8125V20.9297H92.6328V18.6445H94.7539V15.4688H97.5312V18.6445H100.812V20.9297H97.5312V26.4492C97.5312 26.8867 97.5977 27.2109 97.7305 27.4219C97.9648 27.7812 98.4297 27.9609 99.125 27.9609C99.4453 27.9609 99.7617 27.9375 100.074 27.8906C100.395 27.8359 100.695 27.7695 100.977 27.6914V29.9883ZM102.57 22.875H107.738V25.3945H102.57V22.875ZM116.527 28.0547C117.066 28.0547 117.629 28 118.215 27.8906C118.801 27.7812 119.395 27.625 119.996 27.4219V29.6367C119.637 29.793 119.086 29.9414 118.344 30.082C117.602 30.2227 116.832 30.293 116.035 30.293C115.23 30.293 114.465 30.1914 113.738 29.9883C113.02 29.7773 112.391 29.4414 111.852 28.9805C111.312 28.5195 110.883 27.9219 110.562 27.1875C110.25 26.4531 110.094 25.5625 110.094 24.5156C110.094 23.4844 110.242 22.582 110.539 21.8086C110.836 21.0352 111.234 20.3945 111.734 19.8867C112.234 19.3789 112.805 19 113.445 18.75C114.094 18.4922 114.762 18.3633 115.449 18.3633C116.168 18.3633 116.828 18.4727 117.43 18.6914C118.039 18.9102 118.562 19.2539 119 19.7227C119.445 20.1914 119.789 20.7969 120.031 21.5391C120.281 22.2734 120.406 23.1445 120.406 24.1523C120.398 24.543 120.387 24.875 120.371 25.1484H112.93C112.969 25.6719 113.086 26.1211 113.281 26.4961C113.477 26.8633 113.73 27.1641 114.043 27.3984C114.363 27.625 114.734 27.793 115.156 27.9023C115.578 28.0039 116.035 28.0547 116.527 28.0547ZM115.414 20.5312C115.062 20.5312 114.75 20.5977 114.477 20.7305C114.203 20.8555 113.965 21.0312 113.762 21.2578C113.566 21.4766 113.41 21.7344 113.293 22.0312C113.176 22.3281 113.098 22.6445 113.059 22.9805H117.523C117.523 22.6445 117.477 22.3281 117.383 22.0312C117.297 21.7344 117.164 21.4766 116.984 21.2578C116.812 21.0312 116.594 20.8555 116.328 20.7305C116.07 20.5977 115.766 20.5312 115.414 20.5312ZM121.461 18.6445H124.438L126.137 22.7578C126.777 24.3203 127.23 25.4766 127.496 26.2266H127.543C127.738 25.6406 128.152 24.5547 128.785 22.9688L130.543 18.6445H133.555L126.242 35.4492H123.5L126.102 29.3672L121.461 18.6445ZM141.043 28.0547C141.582 28.0547 142.145 28 142.73 27.8906C143.316 27.7812 143.91 27.625 144.512 27.4219V29.6367C144.152 29.793 143.602 29.9414 142.859 30.082C142.117 30.2227 141.348 30.293 140.551 30.293C139.746 30.293 138.98 30.1914 138.254 29.9883C137.535 29.7773 136.906 29.4414 136.367 28.9805C135.828 28.5195 135.398 27.9219 135.078 27.1875C134.766 26.4531 134.609 25.5625 134.609 24.5156C134.609 23.4844 134.758 22.582 135.055 21.8086C135.352 21.0352 135.75 20.3945 136.25 19.8867C136.75 19.3789 137.32 19 137.961 18.75C138.609 18.4922 139.277 18.3633 139.965 18.3633C140.684 18.3633 141.344 18.4727 141.945 18.6914C142.555 18.9102 143.078 19.2539 143.516 19.7227C143.961 20.1914 144.305 20.7969 144.547 21.5391C144.797 22.2734 144.922 23.1445 144.922 24.1523C144.914 24.543 144.902 24.875 144.887 25.1484H137.445C137.484 25.6719 137.602 26.1211 137.797 26.4961C137.992 26.8633 138.246 27.1641 138.559 27.3984C138.879 27.625 139.25 27.793 139.672 27.9023C140.094 28.0039 140.551 28.0547 141.043 28.0547ZM139.93 20.5312C139.578 20.5312 139.266 20.5977 138.992 20.7305C138.719 20.8555 138.48 21.0312 138.277 21.2578C138.082 21.4766 137.926 21.7344 137.809 22.0312C137.691 22.3281 137.613 22.6445 137.574 22.9805H142.039C142.039 22.6445 141.992 22.3281 141.898 22.0312C141.812 21.7344 141.68 21.4766 141.5 21.2578C141.328 21.0312 141.109 20.8555 140.844 20.7305C140.586 20.5977 140.281 20.5312 139.93 20.5312Z" fill="#14931F"/>
</svg>
